<svg xmlns="http://www.w3.org/2000/svg" width="82" height="80" viewBox="0 0 82 80" fill="none"><g clip-path="url(#clip0_7037_21639)"><path d="M59.641 54.1329C52.1849 51.9556 42.3912 31.2146 41.0237 28.4873C39.4576 25.3475 41.6731 21.6424 44.9351 23.7203C49.1979 26.7303 69.343 54.7287 59.641 54.1252V54.1329Z" fill="#EE9191"></path><path d="M36.8451 36.9135C34.3393 44.6904 27.8153 31.2374 26.2645 29.0143C22.7045 23.2924 19.1216 15.8134 19.748 10.5422C22.4448 5.99674 27.6014 16.6384 29.1063 18.2656C32.8038 24.0487 36.6617 30.0151 36.8527 36.9058L36.8451 36.9135Z" fill="#EE9191"></path><path d="M31.0466 54.4082C28.1818 60.9475 21.8182 46.9903 19.9007 45.3631C17.5325 41.8795 15.2254 38.4953 13.9649 34.3242C13.3995 31.4288 13.8121 26.0125 17.7464 28.4112C20.1451 30.428 21.0848 33.3005 22.9335 35.8979C26.5928 42.0171 31.016 48.1744 31.0542 54.4005L31.0466 54.4082Z" fill="#EE9191"></path><path d="M66.7762 13.5295C69.175 12.9183 70.2216 15.3095 71.0237 17.2269C75.1948 27.1735 81.589 35.1032 81.3828 40.0383C78.1895 47.1506 70.8022 32.7579 69.4576 30.6189C66.5623 25.9817 62.9794 16.5012 66.7685 13.5295H66.7762Z" fill="#EE9191"></path><path d="M36.1498 79.9925C30.9397 78.0674 21.2223 62.6892 20.9779 60.8863C19.4958 55.5234 25.9588 56.6617 28.0596 59.1827C30.9702 62.46 45.1414 80.0536 36.1574 79.9848L36.1498 79.9925Z" fill="#EE9191"></path><path d="M1.21471 57.2117C1.3293 57.2499 1.41333 57.2881 1.55084 57.3339C1.5814 57.1582 1.60432 56.9978 1.61196 56.9596C1.9099 56.738 2.1238 56.5853 2.3759 56.3943C7.52487 55.2636 14.4691 71.9405 15.256 74.3851C16.6998 77.8763 14.6219 81.3293 11.2147 79.4882C6.19561 75.3171 3.4607 68.6326 0.94733 62.6433C-0.061073 60.8557 0.626475 59.1674 1.21471 57.204V57.2117Z" fill="#EE9191"></path><path d="M64.7898 33.3461C62.7272 40.0153 56.5087 28.3652 54.5148 26.822C52.1695 23.6211 49.511 20.5501 48.0136 16.7304C46.4781 12.7044 47.7081 7.00537 52.1924 11.123C57.5858 18.6555 64.7745 29.4958 64.7898 33.3461Z" fill="#EE9191"></path><path d="M13.5369 57.4486C12.2 57.3951 11.8257 56.2186 11.1305 55.1185C7.37952 48.5181 2.81879 42.9031 0.267225 35.7526C-0.183501 34.2094 -0.252255 32.1544 1.55829 31.5738C5.1259 30.6724 12.559 43.1552 13.1549 44.8588C14.1099 48.1208 18.8921 58.1514 13.5369 57.4562V57.4486Z" fill="#EE9191"></path><path d="M36.8602 46.9138C40.2903 38.6097 51.6577 61.1002 52.1772 63.7969C52.5592 65.7984 52.6738 68.2889 50 68.4799C44.9961 68.7167 36.4324 48.7243 36.8602 46.9138Z" fill="#EE9191"></path><path d="M5.72192 2.43678C9.04507 1.94022 9.96944 6.04259 11.4515 8.37261C13.3995 12.4291 15.615 16.2947 15.8671 20.8554C13.0634 27.0128 8.67838 16.4093 7.48663 14.232C5.54622 10.7485 2.42933 5.53075 5.72192 2.43678Z" fill="#EE9191"></path><path d="M31.5357 0C41.9559 5.37051 42.6358 20.275 36.8756 16.6921C34.2859 13.8655 24.6449 0.145149 31.5357 0Z" fill="#EE9191"></path></g><defs><clipPath id="clip0_7037_21639"><rect width="81.3904" height="80" fill="white"></rect></clipPath></defs></svg>